<svg width="604" height="494" viewBox="0 0 604 494" fill="none" xmlns="http://www.w3.org/2000/svg">
<path d="M367.044 370.326V489.406H68.8717C34.899 489.406 7.25854 462.696 7.25854 429.866C7.25854 397.037 34.899 370.326 68.8717 370.326H367.044Z" fill="#F2F2F2"/>
<path d="M374.368 488.49C374.367 489.705 373.885 490.869 373.026 491.728C372.168 492.587 371.004 493.07 369.79 493.07H63.5607C46.9288 493.07 30.9782 486.46 19.2176 474.692C7.45711 462.925 0.850098 446.966 0.850098 430.324C0.850098 413.683 7.45711 397.723 19.2176 385.956C30.9782 374.189 46.9288 367.578 63.5607 367.578H369.79C371.004 367.578 372.168 368.061 373.027 368.92C373.885 369.779 374.368 370.943 374.368 372.158C374.368 373.373 373.885 374.538 373.027 375.397C372.168 376.256 371.004 376.738 369.79 376.738H63.5607C49.3569 376.738 35.7347 382.384 25.6911 392.433C15.6474 402.483 10.0049 416.112 10.0049 430.324C10.0049 444.536 15.6474 458.166 25.6911 468.215C35.7347 478.265 49.3569 483.91 63.5607 483.91H369.79C371.004 483.911 372.168 484.393 373.026 485.252C373.885 486.111 374.367 487.276 374.368 488.49Z" fill="#6385FF"/>
<path d="M367.044 397.806H46.6245C46.3817 397.806 46.1488 397.71 45.9771 397.538C45.8055 397.366 45.709 397.133 45.709 396.89C45.709 396.647 45.8055 396.414 45.9771 396.243C46.1488 396.071 46.3817 395.974 46.6245 395.974H367.044C367.287 395.974 367.52 396.071 367.691 396.243C367.863 396.414 367.959 396.647 367.959 396.89C367.959 397.133 367.863 397.366 367.691 397.538C367.52 397.71 367.287 397.806 367.044 397.806Z" fill="#CCCCCC"/>
<path d="M367.044 419.79H46.6245C46.3817 419.79 46.1488 419.694 45.9771 419.522C45.8055 419.35 45.709 419.117 45.709 418.874C45.709 418.631 45.8055 418.398 45.9771 418.227C46.1488 418.055 46.3817 417.958 46.6245 417.958H367.044C367.287 417.958 367.52 418.055 367.691 418.227C367.863 418.398 367.959 418.631 367.959 418.874C367.959 419.117 367.863 419.35 367.691 419.522C367.52 419.694 367.287 419.79 367.044 419.79Z" fill="#CCCCCC"/>
<path d="M367.044 441.774H46.6245C46.3817 441.774 46.1488 441.678 45.9771 441.506C45.8055 441.334 45.709 441.101 45.709 440.858C45.709 440.615 45.8055 440.382 45.9771 440.211C46.1488 440.039 46.3817 439.942 46.6245 439.942H367.044C367.287 439.942 367.52 440.039 367.691 440.211C367.863 440.382 367.959 440.615 367.959 440.858C367.959 441.101 367.863 441.334 367.691 441.506C367.52 441.678 367.287 441.774 367.044 441.774Z" fill="#CCCCCC"/>
<path d="M367.044 463.758H46.6245C46.3817 463.758 46.1488 463.662 45.9771 463.49C45.8055 463.318 45.709 463.085 45.709 462.842C45.709 462.599 45.8055 462.366 45.9771 462.195C46.1488 462.023 46.3817 461.926 46.6245 461.926H367.044C367.287 461.926 367.52 462.023 367.691 462.195C367.863 462.366 367.959 462.599 367.959 462.842C367.959 463.085 367.863 463.318 367.691 463.49C367.52 463.662 367.287 463.758 367.044 463.758Z" fill="#CCCCCC"/>
<path d="M597.487 392.742L522.816 485.467L290.635 298.282C264.181 276.955 259.408 238.804 279.994 213.24C300.58 187.676 338.853 184.229 365.306 205.557L597.487 392.742Z" fill="#F2F2F2"/>
<path d="M529.093 489.351C528.331 490.297 527.225 490.901 526.018 491.031C524.811 491.161 523.602 490.806 522.657 490.044L284.202 297.801C271.251 287.36 262.976 272.199 261.197 255.653C259.418 239.107 264.281 222.532 274.717 209.574C285.152 196.615 300.304 188.336 316.841 186.556C333.377 184.776 349.943 189.642 362.894 200.083L601.349 392.326C601.817 392.703 602.207 393.169 602.495 393.697C602.784 394.225 602.965 394.805 603.03 395.403C603.094 396.001 603.04 396.606 602.871 397.183C602.702 397.761 602.42 398.299 602.043 398.768C601.666 399.236 601.2 399.626 600.672 399.914C600.144 400.202 599.565 400.384 598.967 400.448C598.369 400.512 597.764 400.458 597.188 400.288C596.611 400.118 596.073 399.836 595.605 399.459L357.15 207.215C351.674 202.797 345.381 199.501 338.632 197.517C331.883 195.532 324.809 194.897 317.814 195.649C310.819 196.4 304.041 198.523 297.867 201.896C291.692 205.269 286.243 209.827 281.829 215.308C277.415 220.789 274.124 227.086 272.143 233.84C270.162 240.594 269.53 247.672 270.284 254.67C271.038 261.669 273.162 268.45 276.536 274.626C279.91 280.803 284.466 286.254 289.946 290.668L528.401 482.911C529.346 483.674 529.949 484.78 530.079 485.988C530.209 487.196 529.854 488.405 529.093 489.351V489.351Z" fill="#CCCCCC"/>
<path d="M580.255 414.14L330.751 212.988C330.657 212.913 330.58 212.82 330.522 212.714C330.464 212.609 330.428 212.493 330.415 212.373C330.402 212.253 330.413 212.133 330.447 212.017C330.481 211.902 330.537 211.794 330.613 211.7C330.688 211.607 330.781 211.529 330.887 211.471C330.992 211.414 331.108 211.377 331.227 211.364C331.347 211.352 331.468 211.362 331.583 211.396C331.699 211.43 331.806 211.486 331.9 211.562L581.404 412.713C581.498 412.789 581.576 412.882 581.634 412.987C581.691 413.093 581.728 413.209 581.741 413.329C581.754 413.448 581.743 413.569 581.709 413.685C581.675 413.8 581.619 413.908 581.543 414.002C581.468 414.096 581.375 414.174 581.269 414.231C581.163 414.289 581.048 414.325 580.928 414.338C580.808 414.351 580.687 414.34 580.572 414.306C580.456 414.272 580.349 414.215 580.255 414.14V414.14Z" fill="#CCCCCC"/>
<path d="M566.47 431.258L316.965 230.107C316.777 229.954 316.656 229.733 316.63 229.492C316.605 229.25 316.676 229.009 316.828 228.82C316.98 228.631 317.201 228.51 317.442 228.484C317.683 228.458 317.925 228.528 318.114 228.68L567.619 429.832C567.712 429.907 567.79 430 567.848 430.106C567.906 430.211 567.942 430.327 567.955 430.447C567.968 430.567 567.957 430.688 567.924 430.803C567.89 430.919 567.833 431.027 567.758 431.12C567.682 431.214 567.589 431.292 567.484 431.35C567.378 431.407 567.262 431.444 567.142 431.456C567.023 431.469 566.902 431.458 566.786 431.424C566.671 431.39 566.563 431.334 566.47 431.258V431.258Z" fill="#CCCCCC"/>
<path d="M552.684 448.377L303.18 247.225C302.991 247.073 302.87 246.852 302.844 246.61C302.818 246.369 302.889 246.127 303.042 245.937C303.194 245.748 303.415 245.627 303.657 245.601C303.898 245.575 304.14 245.646 304.329 245.799L553.833 446.95C553.927 447.026 554.005 447.119 554.062 447.224C554.12 447.33 554.156 447.446 554.169 447.566C554.182 447.685 554.171 447.806 554.137 447.921C554.103 448.037 554.047 448.145 553.972 448.238C553.896 448.332 553.803 448.41 553.698 448.467C553.592 448.525 553.476 448.561 553.357 448.574C553.237 448.587 553.116 448.576 553.001 448.542C552.886 448.509 552.778 448.452 552.684 448.377V448.377Z" fill="#CCCCCC"/>
<path d="M538.899 465.495L289.395 264.344C289.301 264.269 289.223 264.175 289.165 264.07C289.108 263.964 289.072 263.848 289.059 263.729C289.046 263.609 289.057 263.488 289.091 263.373C289.124 263.257 289.181 263.15 289.256 263.056C289.332 262.962 289.425 262.884 289.53 262.827C289.636 262.769 289.752 262.733 289.871 262.72C289.991 262.707 290.111 262.718 290.227 262.752C290.342 262.786 290.45 262.842 290.543 262.917L540.047 464.069C540.141 464.144 540.219 464.237 540.277 464.343C540.335 464.449 540.371 464.565 540.384 464.684C540.397 464.804 540.386 464.925 540.353 465.041C540.319 465.156 540.262 465.264 540.187 465.358C540.111 465.451 540.018 465.529 539.913 465.587C539.807 465.645 539.691 465.681 539.571 465.694C539.452 465.706 539.331 465.695 539.215 465.661C539.1 465.627 538.992 465.571 538.899 465.495V465.495Z" fill="#CCCCCC"/>
<path d="M242.508 357.81L232.042 357.809L227.064 317.417L242.511 317.419L242.508 357.81Z" fill="#FFB8B8"/>
<path d="M224.565 354.817H244.75V367.533H211.857C211.857 365.863 212.185 364.209 212.824 362.667C213.463 361.124 214.399 359.722 215.579 358.541C216.759 357.361 218.16 356.424 219.702 355.785C221.244 355.146 222.896 354.817 224.565 354.817V354.817Z" fill="#2F2E41"/>
<path d="M135.584 357.81L125.118 357.809L120.14 317.417L135.587 317.419L135.584 357.81Z" fill="#FFB8B8"/>
<path d="M117.642 354.817H137.826V367.533H104.933C104.933 365.863 105.262 364.209 105.9 362.667C106.539 361.124 107.475 359.722 108.655 358.541C109.835 357.361 111.237 356.424 112.778 355.785C114.32 355.146 115.973 354.817 117.642 354.817V354.817Z" fill="#2F2E41"/>
<path d="M170.542 58.1963V53.6162C170.542 45.7815 173.652 38.2676 179.189 32.7276C184.726 27.1876 192.235 24.0752 200.066 24.0752H200.066C207.896 24.0752 215.406 27.1876 220.943 32.7276C226.48 38.2676 229.59 45.7815 229.59 53.6162V58.1963C229.59 63.8446 227.348 69.2616 223.356 73.2556C219.364 77.2495 213.95 79.4933 208.305 79.4933H191.827C189.031 79.4933 186.264 78.9425 183.681 77.8722C181.099 76.8019 178.752 75.2332 176.776 73.2556C174.799 71.278 173.231 68.9302 172.162 66.3463C171.092 63.7624 170.542 60.9931 170.542 58.1963V58.1963Z" fill="#2F2E41"/>
<path d="M200.066 81.0692C212.484 81.0692 222.551 70.9966 222.551 58.5713C222.551 46.1461 212.484 36.0734 200.066 36.0734C187.648 36.0734 177.581 46.1461 177.581 58.5713C177.581 70.9966 187.648 81.0692 200.066 81.0692Z" fill="#FFB8B8"/>
<path d="M77.7607 135.894C78.6732 135.032 79.7635 134.38 80.9548 133.985C82.1461 133.59 83.4095 133.462 84.6559 133.608C85.9023 133.755 87.1015 134.173 88.1689 134.833C89.2364 135.494 90.1461 136.38 90.8341 137.43L110.109 133.782L115.182 144.962L87.8893 149.731C86.0494 150.77 83.8923 151.098 81.8268 150.653C79.7613 150.207 77.9309 149.019 76.6825 147.314C75.434 145.608 74.8542 143.503 75.0529 141.399C75.2517 139.294 76.2151 137.335 77.7607 135.894V135.894Z" fill="#FFB8B8"/>
<path d="M182.536 95.2377L182.788 95.6198L151.18 116.454L97.8454 133.494C97.1384 133.722 96.532 134.187 96.1294 134.811C95.7268 135.436 95.5529 136.18 95.6373 136.919L96.8008 146.946C96.8524 147.389 96.9961 147.818 97.2227 148.203C97.4493 148.587 97.7539 148.921 98.1168 149.181C98.4797 149.441 98.8929 149.623 99.33 149.714C99.7672 149.805 100.219 149.804 100.655 149.711L150.851 138.945C153.28 138.427 155.577 137.415 157.599 135.972L193.109 110.693C194.396 109.772 195.424 108.533 196.091 107.097C196.758 105.661 197.042 104.076 196.916 102.498C196.786 100.917 196.246 99.397 195.351 98.088C194.456 96.779 193.235 95.7257 191.81 95.0317C190.384 94.3378 188.803 94.0271 187.221 94.1302C185.639 94.2333 184.111 94.7467 182.788 95.6198L182.536 95.2377Z" fill="#CCCCCC"/>
<path d="M232.229 346.348C231.426 346.348 230.64 346.114 229.967 345.675C229.294 345.235 228.764 344.609 228.441 343.873L180.46 225.25C180.348 224.993 180.16 224.776 179.921 224.629C179.683 224.482 179.404 224.412 179.124 224.428C178.844 224.443 178.576 224.544 178.355 224.718C178.134 224.891 177.972 225.127 177.889 225.395L138.745 340.879C138.579 341.416 138.306 341.914 137.941 342.342C137.577 342.77 137.128 343.119 136.624 343.367C136.12 343.615 135.57 343.757 135.009 343.785C134.447 343.812 133.886 343.725 133.36 343.527L120.234 338.602C119.521 338.337 118.896 337.88 118.428 337.281C117.96 336.682 117.667 335.964 117.581 335.209C111.676 283.736 163.173 153.813 163.694 152.507L163.838 152.145L210.781 162.535L210.879 162.642C229.608 183.085 245.002 312.025 247.898 337.665C248.006 338.592 247.795 339.527 247.301 340.317C246.806 341.108 246.058 341.706 245.178 342.013L233.591 346.113C233.154 346.269 232.693 346.348 232.229 346.348Z" fill="#2F2E41"/>
<path d="M191.782 166.717C180.408 166.717 167.728 164.448 163.825 155.083L163.735 154.868L163.857 154.669C166.937 149.611 171.009 140.983 168.821 139.364C164.509 136.174 162.417 130.927 162.603 123.769C163.006 108.228 173.589 94.4302 188.938 89.4346H188.938C193.222 88.0628 197.582 86.9397 201.996 86.0708C205.213 85.4211 208.535 85.4926 211.721 86.28C214.908 87.0674 217.881 88.5512 220.427 90.6248C223.004 92.712 225.088 95.3446 226.527 98.3333C227.967 101.322 228.727 104.593 228.754 107.91C228.915 124.518 226.359 147.649 213.271 163.53C212.658 164.267 211.804 164.764 210.861 164.933C204.564 166.072 198.181 166.669 191.782 166.717Z" fill="#CCCCCC"/>
<path d="M187.552 166.095C188.17 163.874 189.641 161.986 191.643 160.843C193.645 159.7 196.017 159.394 198.243 159.991C198.697 160.118 199.141 160.282 199.568 160.482L214.204 147.155L224.382 154.017L203.453 172.548C202.508 174.253 201.02 175.593 199.226 176.354C197.432 177.115 195.435 177.255 193.553 176.749C192.457 176.449 191.431 175.935 190.535 175.235C189.639 174.536 188.89 173.666 188.332 172.675C187.773 171.684 187.417 170.593 187.283 169.463C187.149 168.334 187.241 167.189 187.552 166.095V166.095Z" fill="#FFB8B8"/>
<path d="M211.885 166.265C210.936 166.265 210.015 165.937 209.28 165.335L203.509 160.616C203.028 160.222 202.642 159.725 202.38 159.161C202.118 158.598 201.987 157.982 201.997 157.36C202.006 156.739 202.156 156.127 202.435 155.572C202.715 155.016 203.116 154.531 203.609 154.153L227.816 135.577C228.103 135.356 228.291 135.03 228.339 134.671C228.388 134.312 228.293 133.948 228.075 133.658L213.134 113.894C211.398 111.606 210.528 108.776 210.676 105.907C210.825 103.038 211.983 100.314 213.947 98.2176V98.2176C216.014 95.9834 218.846 94.6085 221.879 94.3657C224.912 94.1229 227.926 95.0301 230.322 96.9071L230.417 97.0069L246.019 119.359C247.706 120.683 249.064 122.379 249.988 124.314C250.912 126.25 251.376 128.373 251.344 130.518C251.312 132.663 250.785 134.771 249.804 136.679C248.823 138.586 247.415 140.241 245.689 141.513L214.338 165.456C213.628 165.981 212.768 166.265 211.885 166.265Z" fill="#CCCCCC"/>
<path d="M180.149 52.2422V41.0797L200.066 32.3777L219.057 41.0797V52.2422C219.057 52.7281 218.864 53.1941 218.52 53.5377C218.177 53.8812 217.711 54.0742 217.226 54.0742H181.98C181.494 54.0742 181.028 53.8812 180.685 53.5377C180.342 53.1941 180.149 52.7281 180.149 52.2422Z" fill="#2F2E41"/>
<path d="M199.152 25.5561C196.223 16.1776 202.373 5.42939 211.466 1.71714C220.558 -1.9951 231.435 0.599872 239.107 6.73307C246.779 12.8663 251.539 22.0526 254.062 31.5486C256.584 41.0446 257.062 50.9466 257.528 60.7611C268.699 62.8142 276.298 76.0714 272.428 86.7557C268.558 97.44 254.235 102.748 244.343 97.1636C234.451 91.5792 231.586 76.5676 238.725 67.7291C242.103 63.5469 243.991 58.3565 244.088 52.9801C244.185 47.6037 242.486 42.3486 239.261 38.047C236.036 33.7455 231.469 30.6434 226.283 29.2322C221.098 27.8209 215.589 28.1811 210.631 30.2557C205.126 32.5594 198.218 26.574 199.152 25.5561Z" fill="#2F2E41"/>
<path d="M73.6309 92.5919C60.2563 92.504 47.0488 89.6098 34.8618 84.0961C34.1364 83.7726 33.5206 83.2449 33.0896 82.5775C32.6585 81.91 32.4308 81.1315 32.4341 80.3368V46.9779C32.4353 45.8851 32.8698 44.8373 33.6421 44.0646C34.4144 43.2918 35.4616 42.8571 36.5538 42.8559H110.708C111.8 42.8572 112.847 43.2918 113.62 44.0646C114.392 44.8374 114.826 45.8851 114.828 46.9779V80.3369C114.831 81.1315 114.603 81.91 114.172 82.5775C113.741 83.245 113.125 83.7726 112.4 84.0961C100.213 89.6098 87.0055 92.5041 73.6309 92.5919V92.5919Z" fill="#6385FF"/>
<path d="M73.6211 65.5671C73.0714 65.5676 72.5271 65.4581 72.0203 65.2451L13.217 40.4218C12.4587 40.1018 11.8136 39.5617 11.3648 38.8714C10.9161 38.1811 10.6843 37.3721 10.6994 36.5487C10.7145 35.7254 10.9758 34.9254 11.4495 34.252C11.9232 33.5786 12.5876 33.0625 13.3571 32.7705L72.1612 10.4496C73.1083 10.0885 74.1555 10.0907 75.1011 10.4559L133.117 32.7767C133.882 33.0711 134.542 33.5873 135.013 34.2591C135.483 34.9309 135.742 35.7278 135.757 36.5479C135.773 37.368 135.543 38.174 135.098 38.8628C134.652 39.5515 134.012 40.0917 133.258 40.4142L75.2415 65.237C74.7292 65.4553 74.178 65.5676 73.6211 65.5671V65.5671Z" fill="#6385FF"/>
<path d="M39.3008 86.3659C42.3344 86.3659 44.7937 83.9053 44.7937 80.8699C44.7937 77.8346 42.3344 75.3739 39.3008 75.3739C36.2671 75.3739 33.8079 77.8346 33.8079 80.8699C33.8079 83.9053 36.2671 86.3659 39.3008 86.3659Z" fill="#3F3D56"/>
<path opacity="0.2" d="M133.459 36.8908L75.4416 61.7136C74.9893 61.9071 74.5027 62.0075 74.0107 62.0087C73.5188 62.0099 73.0317 61.9119 72.5785 61.7206L13.7752 36.898C13.0367 36.5937 12.4206 36.0519 12.0242 35.3581C11.765 35.808 11.6043 36.3079 11.5529 36.8247C11.5015 37.3415 11.5606 37.8632 11.7262 38.3554C11.8918 38.8476 12.1601 39.2989 12.5134 39.6793C12.8667 40.0598 13.2968 40.3607 13.7752 40.562L72.5785 65.3846C73.0317 65.5759 73.5188 65.6739 74.0107 65.6727C74.5027 65.6715 74.9893 65.5711 75.4416 65.3776L133.459 40.5548C133.935 40.3516 134.362 40.0498 134.713 39.6692C135.064 39.2885 135.33 38.8378 135.494 38.3467C135.658 37.8556 135.716 37.3353 135.664 36.8201C135.612 36.3049 135.451 35.8066 135.193 35.3581C134.799 36.0463 134.19 36.5851 133.459 36.8908V36.8908Z" fill="black"/>
<path d="M39.7622 80.8485C40.005 80.8485 40.2378 80.752 40.4095 80.5802C40.5812 80.4084 40.6777 80.1754 40.6777 79.9325V49.2818L70.8714 38.2759C71.1142 38.2795 71.3485 38.1865 71.5227 38.0173C71.697 37.848 71.7969 37.6165 71.8005 37.3736C71.8041 37.1306 71.7112 36.8962 71.542 36.7218C71.3729 36.5475 71.1415 36.4475 70.8987 36.4439L40.7049 47.4498C40.4619 47.4442 40.2204 47.488 39.9948 47.5786C39.7693 47.6691 39.5644 47.8046 39.3927 47.9767C39.2192 48.1467 39.0814 48.3498 38.9877 48.5739C38.8939 48.7981 38.846 49.0388 38.8467 49.2818V79.9325C38.8467 80.1754 38.9432 80.4084 39.1148 80.5802C39.2865 80.7519 39.5194 80.8484 39.7622 80.8485V80.8485Z" fill="#3F3D56"/>
</svg>
